<?xml version="1.0" standalone="no"?>
<!DOCTYPE svg PUBLIC "-//W3C//DTD SVG 20010904//EN"
 "http://www.w3.org/TR/2001/REC-SVG-20010904/DTD/svg10.dtd">
<svg version="1.0" xmlns="http://www.w3.org/2000/svg"
 width="625.000000pt" height="625.000000pt" viewBox="0 0 625.000000 625.000000"
 preserveAspectRatio="xMidYMid meet">
<metadata>
Created by potrace 1.11, written by Peter Selinger 2001-2013
</metadata>
<g transform="translate(0.000000,625.000000) scale(0.100000,-0.100000)"
fill="#000000" stroke="none">
<path d="M3267 6234 c-32 -8 -68 -16 -80 -19 -170 -36 -561 -159 -594 -186 -7
-6 -13 -9 -13 -5 0 19 -340 -179 -404 -236 -11 -10 -23 -18 -27 -18 -5 0 -18
-10 -31 -22 -13 -13 -49 -43 -82 -67 -136 -102 -418 -377 -574 -561 -26 -30
-57 -66 -70 -80 -69 -74 -344 -463 -375 -530 -4 -8 -21 -37 -37 -65 -97 -162
-250 -501 -313 -696 -36 -109 -70 -280 -83 -419 -25 -263 -25 -911 0 -1040 3
-14 8 -45 10 -70 11 -98 28 -189 52 -290 14 -58 27 -109 28 -115 9 -35 40
-136 53 -170 8 -22 14 -40 13 -40 -2 0 9 -29 53 -145 82 -213 275 -566 394
-720 178 -232 313 -340 425 -340 64 0 113 63 132 170 1 8 8 40 14 70 12 60 15
81 38 245 8 61 17 124 20 140 2 17 7 48 9 70 3 22 7 49 9 60 2 11 7 45 11 75
4 30 9 62 10 70 1 8 6 35 10 60 4 25 9 54 11 65 3 11 7 36 10 55 2 19 8 49 11
65 4 17 7 32 8 35 1 3 5 28 10 55 4 28 9 55 11 60 1 6 5 25 8 43 7 35 29 139
52 242 8 36 17 73 19 82 2 10 20 82 39 160 20 79 38 153 41 166 2 12 6 26 9
30 3 5 7 19 10 33 6 31 7 32 65 239 64 226 93 325 125 430 15 47 28 94 31 105
28 119 278 853 390 1145 30 80 55 151 55 158 0 6 5 12 10 12 6 0 10 6 10 13 0
12 36 109 60 162 5 11 19 45 31 75 12 30 34 83 50 117 16 34 29 64 29 67 0 6
12 34 74 169 20 44 36 81 36 83 0 7 170 347 217 434 22 41 68 121 101 178 76
127 128 237 135 281 8 47 -15 98 -50 113 -41 17 -139 18 -206 2z"/>
<path d="M3940 6095 c-102 -27 -181 -99 -259 -235 -36 -63 -81 -155 -81 -166
0 -7 -3 -14 -8 -16 -7 -3 -92 -189 -92 -201 0 -3 -14 -36 -31 -74 -16 -37 -40
-90 -52 -117 -12 -27 -22 -52 -23 -55 0 -3 -12 -32 -27 -65 -15 -32 -27 -60
-27 -62 0 -4 -41 -95 -90 -199 -67 -141 -193 -439 -199 -467 -1 -4 -11 -29
-22 -55 -63 -146 -221 -633 -309 -953 -17 -63 -40 -144 -50 -180 -11 -36 -22
-76 -24 -90 -3 -14 -33 -133 -66 -264 -33 -132 -62 -249 -64 -260 -2 -12 -7
-28 -10 -36 -3 -8 -7 -26 -10 -40 -2 -14 -12 -56 -21 -95 -9 -38 -19 -83 -21
-100 -3 -16 -9 -41 -14 -55 -4 -14 -14 -54 -21 -90 -8 -36 -14 -68 -15 -72 -1
-5 -2 -9 -4 -10 -1 -2 -3 -12 -5 -23 -1 -11 -5 -32 -9 -47 -3 -16 -9 -40 -12
-55 -3 -16 -10 -48 -16 -73 -5 -25 -12 -60 -13 -78 -2 -18 -6 -36 -9 -40 -6
-10 -45 -193 -52 -241 -2 -19 -6 -37 -9 -41 -2 -4 -7 -22 -10 -41 -3 -19 -19
-99 -35 -179 -16 -80 -31 -156 -34 -170 -3 -14 -9 -50 -15 -80 -6 -30 -13 -67
-16 -82 -24 -127 -34 -183 -40 -223 -3 -22 -7 -47 -10 -55 -2 -8 -6 -37 -10
-64 -3 -27 -8 -53 -10 -56 -8 -13 -18 -116 -18 -175 0 -119 21 -181 80 -240
35 -35 119 -95 138 -100 5 -1 23 -7 39 -14 33 -13 104 -30 156 -37 19 -2 50
-9 69 -14 33 -9 196 -7 236 3 11 3 43 8 70 11 87 12 150 23 260 46 50 10 124
28 165 40 41 12 82 23 91 25 34 7 198 65 284 100 91 36 316 145 325 156 3 4
21 15 40 25 34 19 200 125 223 144 7 5 66 50 132 99 66 49 132 100 147 113 14
13 58 50 97 82 99 82 225 218 326 350 47 62 85 115 85 120 0 4 11 19 25 34 14
15 25 31 25 35 0 5 8 21 19 35 20 30 92 157 119 212 9 19 20 36 25 38 4 2 7 8
7 14 0 5 14 40 31 76 47 101 119 280 119 297 0 8 4 15 8 15 5 0 9 6 9 13 0 6
14 53 31 102 51 151 121 412 138 520 2 11 10 52 18 90 8 39 17 88 20 110 4 22
11 65 16 95 5 30 12 78 15 105 4 28 9 70 13 95 8 64 7 532 -1 615 -16 145 -28
237 -48 350 -6 33 -13 71 -15 85 -6 37 -64 272 -71 290 -7 18 -10 28 -17 55
-23 100 -141 378 -224 530 -39 71 -136 223 -169 265 -146 185 -223 267 -353
371 -145 117 -323 216 -490 274 -3 1 -12 4 -20 7 -44 16 -132 38 -180 43 -89
12 -108 12 -150 0z"/>
</g>
</svg>
